<svg xmlns="http://www.w3.org/2000/svg" version="1.1" xmlns:xlink="http://www.w3.org/1999/xlink" xmlns:svgjs="http://svgjs.com/svgjs" width="299.36" height="336.21"><svg xmlns="http://www.w3.org/2000/svg" viewBox="0 0 299.36 336.21"><polygon points="0 190.72 57.52 190.72 57.52 336.21 0 285.32 0 190.72" fill="#1a1a1a"></polygon><polygon points="147.51 0 147.51 79.4 204.99 79.4 204.99 62.81 147.51 0" fill="#1a1a1a"></polygon><rect x="89.86" y="217.15" width="119.66" height="39.74" transform="translate(-123.76 175.27) rotate(-45)" fill="#306767"></rect><rect x="129.82" y="177.19" width="39.74" height="119.66" transform="translate(-123.75 175.26) rotate(-45)" fill="#306767"></rect><rect x="57.5" width="90" height="57.49" fill="#383838"></rect><polygon points="0 62.81 0 185.44 0 190.72 57.52 190.72 57.52 132.82 57.52 0.02 0 62.81" fill="#1a1a1a"></polygon><rect y="188.73" width="57.51" height="96.59" fill="#099393"></rect><polygon points="0.02 188.72 81.3 188.72 81.3 137.83 57.5 137.83 0.02 188.72" fill="#306767"></polygon><polygon points="0.02 285.32 81.3 285.32 81.3 336.21 57.52 336.21 0.02 285.32" fill="#306767"></polygon><rect x="241.87" y="188.72" width="57.49" height="96.6" fill="#099393"></rect><polygon points="299.36 285.32 219.96 285.32 219.96 336.21 243.76 336.21 299.36 285.32" fill="#306767"></polygon><polygon points="299.36 188.72 219.96 188.72 219.96 137.83 243.76 137.83 299.36 188.72" fill="#306767"></polygon></svg><style>@media (prefers-color-scheme: light) { :root { filter: none; } }
@media (prefers-color-scheme: dark) { :root { filter: contrast(1) brightness(1.2); } }
</style></svg>