<?xml version="1.0" standalone="no"?>
<!DOCTYPE svg PUBLIC "-//W3C//DTD SVG 20010904//EN"
 "http://www.w3.org/TR/2001/REC-SVG-20010904/DTD/svg10.dtd">
<svg version="1.0" xmlns="http://www.w3.org/2000/svg"
 width="672.000000pt" height="672.000000pt" viewBox="0 0 672.000000 672.000000"
 preserveAspectRatio="xMidYMid meet">
<metadata>
Created by potrace 1.14, written by Peter Selinger 2001-2017
</metadata>
<g transform="translate(0.000000,672.000000) scale(0.100000,-0.100000)"
fill="#000000" stroke="none">
<path d="M1510 6713 c0 -5 -28 -38 -63 -74 -34 -36 -96 -103 -137 -148 -41
-46 -91 -100 -110 -120 -19 -21 -71 -77 -115 -125 -44 -49 -93 -103 -110 -121
-66 -70 -212 -230 -243 -266 -18 -20 -56 -62 -85 -92 -46 -49 -87 -94 -236
-257 l-41 -45 0 -2226 0 -2225 88 -76 c48 -42 101 -89 119 -105 17 -15 46 -41
65 -57 18 -16 53 -48 78 -70 25 -23 79 -70 119 -106 41 -36 79 -69 85 -75 6
-5 45 -39 86 -75 41 -36 84 -74 96 -85 12 -11 39 -35 60 -54 63 -54 164 -144
193 -171 15 -14 57 -51 93 -83 l66 -57 238 2 238 3 1 498 c0 275 -2 502 -5
507 -3 4 -108 7 -235 7 l-230 -1 -2 60 c-1 32 -2 104 -2 159 1 55 0 114 -1
130 -1 17 -2 35 -2 40 0 6 1 84 1 175 0 168 1 234 4 328 1 28 -2 52 -6 52 -5
0 -5 5 -2 10 4 6 6 35 5 65 -1 68 -1 54 -1 215 0 140 1 208 4 298 1 28 -2 52
-6 52 -5 0 -5 5 -2 10 4 6 6 35 5 65 -1 61 -1 54 0 181 l0 91 235 -1 c149 -1
236 3 238 9 2 9 1 957 -2 995 -1 14 -31 16 -232 15 -127 0 -232 2 -234 6 -2 3
-4 21 -4 40 -1 19 -1 54 -2 79 -3 117 -2 147 4 157 4 7 3 14 -3 18 -6 4 -8 10
-5 15 5 8 6 42 4 125 0 22 0 67 0 100 1 33 0 77 -1 98 -2 21 0 43 4 50 4 6 4
15 1 20 -4 7 -7 304 -3 332 1 6 1 28 0 50 -5 83 -3 141 3 152 4 7 3 14 -3 18
-6 4 -8 10 -5 15 5 8 6 28 4 163 0 42 0 97 0 122 l1 45 898 0 898 0 0 -211
c-1 -116 1 -214 4 -218 8 -12 1139 -9 1143 3 2 6 3 82 2 169 l-1 158 -29 28
c-17 16 -59 61 -95 101 -36 41 -78 88 -95 106 -78 84 -195 212 -216 235 -13
15 -62 69 -109 119 -47 51 -101 110 -120 132 -19 22 -62 69 -96 104 -34 35
-60 64 -58 64 2 0 -27 33 -65 73 -38 39 -79 84 -92 98 -13 15 -57 63 -98 108
l-74 81 -903 0 c-497 0 -904 -3 -904 -7z"/>
<path d="M4769 3965 c-1 0 -2 -228 -3 -507 -1 -449 0 -508 14 -509 8 0 104 -1
212 0 124 0 200 -4 204 -10 3 -6 6 -54 6 -107 -1 -111 -1 -165 -1 -312 0 -58
0 -130 0 -160 0 -30 0 -102 0 -160 0 -58 0 -130 0 -160 0 -30 0 -102 0 -160 0
-58 0 -130 0 -160 0 -30 1 -120 2 -198 1 -79 -1 -146 -5 -148 -4 -3 -5 -11 -2
-18 9 -23 11 -161 2 -178 -5 -10 -5 -18 -1 -18 4 0 8 -32 8 -70 0 -68 -1 -70
-25 -71 -14 0 -113 -1 -220 -2 l-195 -2 0 -508 0 -507 238 0 238 0 57 53 c31
28 66 61 77 72 12 11 59 54 105 95 45 41 97 89 114 105 18 17 75 68 126 115
51 47 105 96 120 110 29 27 194 178 240 220 15 14 69 63 120 110 51 47 105 97
121 111 l29 26 0 965 0 965 -102 94 c-57 52 -115 105 -129 119 -26 24 -167
154 -213 195 -30 27 -220 201 -265 244 -20 18 -64 59 -99 90 -35 31 -83 75
-108 98 -25 23 -79 73 -120 110 l-75 68 -234 0 c-129 0 -236 0 -236 0z"/>
<path d="M3645 2830 c-153 -154 -282 -280 -285 -280 -3 0 -129 124 -280 275
-151 151 -279 275 -285 275 -5 0 -133 -124 -284 -275 l-274 -275 19 -21 c10
-12 135 -137 277 -279 141 -142 257 -261 257 -266 0 -5 -124 -133 -275 -284
-151 -151 -275 -278 -275 -281 0 -7 549 -559 556 -559 2 0 127 124 278 275
151 151 280 275 286 275 7 0 136 -124 287 -275 238 -239 277 -274 291 -263 31
26 542 541 542 547 0 3 -124 130 -275 281 -151 151 -275 279 -275 283 0 5 124
132 275 283 151 152 275 278 275 282 0 4 -125 132 -278 285 l-277 277 -280
-280z"/>
</g>
</svg>
