<svg version="1" xmlns="http://www.w3.org/2000/svg" width="550.667" height="550.667" viewBox="0 0 413.000000 413.000000"><path d="M22.8 126.7c0 8.2-.2 26-.2 39.8l-.1 25-4.7.3-4.8.3v38.8l4.8.3 4.7.3.3 39.7.2 39.8h39l.2-39.8.3-39.7 14.8-.3 14.7-.3v-38.8l-14.7-.3-14.8-.3v-40l19.8-.3 19.7-.2v-39H23l-.2 14.7zM209.8 206.3l24.2 24.2-25 25c-13.7 13.7-24.7 25.1-24.5 25.3.2.2 12.8.4 28 .5h27.7l11.1-11.1 11.2-11.2 11 11 11 11h57l-25.3-25.3-25.2-25.2 24.2-24.3 24.3-24.2h-57l-10 10-10 10-10-10-10-10h-57l24.3 24.3zM135.9 196.2c-5.9 22.1-6.3 46.6-1.1 67.3l1.8 7 6.7.3c3.7.2 6.7-.1 6.7-.5s-.9-4.1-2-8.1c-5.6-20.9-5.1-44.4 1.4-65.5l1.4-4.7h-13.7l-1.2 4.2zM376.6 196.7c6.5 21.1 7 44.6 1.4 65.5-1.1 4-2 7.7-2 8.1 0 .4 3 .7 6.7.5l6.7-.3 1.8-7c5.2-20.7 4.8-45.2-1.1-67.3l-1.2-4.2h-13.7l1.4 4.7z"/></svg>