<?xml version="1.0" standalone="no"?>
<!DOCTYPE svg PUBLIC "-//W3C//DTD SVG 20010904//EN"
 "http://www.w3.org/TR/2001/REC-SVG-20010904/DTD/svg10.dtd">
<svg version="1.0" xmlns="http://www.w3.org/2000/svg"
 width="1101.000000pt" height="1280.000000pt" viewBox="0 0 1101.000000 1280.000000"
 preserveAspectRatio="xMidYMid meet">
<metadata>
Created by potrace 1.16, written by Peter Selinger 2001-2019
</metadata>
<g transform="translate(0.000000,1280.000000) scale(0.100000,-0.100000)"
fill="#000000" stroke="none">
<path d="M1884 12555 c-27 -19 -60 -35 -74 -35 -14 -1 -36 -7 -50 -15 -14 -8
-36 -14 -50 -15 -16 0 -29 -8 -35 -22 -6 -12 -23 -26 -40 -31 -56 -16 -105
-40 -105 -51 -1 -26 -22 -39 -95 -57 -54 -12 -84 -25 -100 -43 -13 -14 -33
-26 -44 -26 -44 0 -114 -26 -128 -47 -10 -14 -40 -29 -90 -44 -60 -18 -80 -29
-92 -50 -13 -22 -28 -30 -91 -44 -52 -12 -81 -24 -95 -41 -12 -13 -41 -28 -70
-35 -74 -17 -95 -27 -95 -44 0 -20 -72 -55 -114 -55 -41 0 -66 -22 -66 -56 0
-14 -10 -35 -22 -48 -13 -13 -33 -37 -45 -54 l-23 -31 0 -3991 c0 -3977 0
-3990 20 -4010 11 -11 27 -20 35 -20 8 0 15 -4 15 -8 0 -5 9 -18 20 -30 16
-16 32 -22 66 -22 35 0 51 -6 71 -26 32 -32 83 -64 103 -64 8 0 42 -21 74 -45
33 -25 69 -45 81 -45 37 0 109 -29 126 -51 10 -14 39 -26 85 -35 51 -11 77
-22 100 -45 17 -17 38 -31 45 -33 48 -8 98 -33 126 -62 18 -19 41 -34 52 -34
11 0 43 -5 71 -12 38 -9 54 -18 60 -34 6 -16 25 -27 63 -38 30 -9 60 -16 66
-16 6 0 18 -11 27 -25 11 -18 26 -25 48 -25 17 -1 54 -7 81 -14 41 -10 53 -19
66 -46 22 -45 68 -63 142 -56 69 7 97 20 97 45 0 27 22 41 92 57 36 9 73 25
88 38 17 17 48 28 98 37 52 9 76 18 83 31 11 21 59 43 116 53 23 3 62 23 92
45 29 22 70 44 91 50 22 6 45 19 52 28 7 10 20 22 28 26 8 4 26 13 40 21 14 8
43 15 64 15 30 0 49 8 82 35 23 19 48 35 54 35 29 0 109 44 129 71 14 18 31
29 46 29 52 0 117 25 136 51 10 15 31 30 46 33 16 4 43 14 60 24 32 16 34 16
55 -6 l23 -23 5 -1567 c4 -1180 8 -1574 17 -1594 11 -24 17 -27 95 -33 122 -9
4719 -1 4745 9 13 5 25 20 28 37 8 36 21 43 108 60 50 9 74 19 87 36 14 18 36
27 93 37 54 9 84 20 106 39 18 14 48 29 69 32 60 11 102 26 102 37 0 6 3 9 6
5 4 -3 21 5 39 18 17 14 47 28 66 31 45 9 119 51 119 69 0 8 12 17 27 21 16 3
41 10 57 15 16 5 43 9 61 9 23 0 37 8 53 29 17 23 31 30 75 35 53 7 79 23 89
55 2 8 37 22 82 33 60 14 90 27 128 58 28 22 60 40 73 40 40 0 112 31 140 60
16 17 34 30 42 30 7 0 17 9 23 20 7 13 10 1246 10 4027 l0 4007 -30 27 c-17
16 -30 37 -30 49 0 21 -5 24 -93 55 -27 10 -64 33 -82 51 -19 19 -43 34 -53
34 -37 0 -122 31 -122 45 0 13 -20 21 -110 45 -31 8 -50 20 -61 38 -15 27 -54
45 -133 62 -22 4 -46 16 -53 27 -24 35 -31 39 -87 53 -39 9 -61 20 -68 34 -15
29 -25 34 -83 41 -91 11 -106 16 -115 39 -6 16 -22 25 -61 35 -30 7 -61 15
-70 17 -10 3 -20 20 -23 39 -7 37 -29 48 -125 62 -34 5 -47 12 -60 34 -13 24
-26 30 -85 40 -51 8 -75 18 -92 36 -13 14 -40 30 -61 36 -27 8 -704 13 -2393
17 l-2354 5 -18 50 c-17 46 -18 102 -18 757 l0 708 -39 25 c-22 13 -43 31 -48
38 -4 8 -18 19 -29 25 -13 7 -24 25 -28 46 -7 38 -19 50 -57 59 -15 4 -39 20
-55 36 -19 19 -47 34 -79 41 -92 21 -120 33 -153 61 -18 16 -42 29 -53 29 -30
0 -81 29 -107 61 -18 23 -32 29 -61 29 -20 0 -46 7 -57 15 -10 8 -27 15 -37
15 -9 0 -23 11 -29 25 -11 24 -26 31 -113 51 -16 3 -40 17 -52 29 -15 16 -44
27 -92 35 -80 15 -81 15 -101 54 -15 29 -21 31 -143 60 -16 4 -33 17 -39 31
-12 26 -44 40 -116 51 -24 4 -52 15 -61 26 -21 22 -72 38 -122 38 -25 0 -51
-11 -85 -35z m4901 -5669 l40 -23 3 -1516 2 -1517 -28 -52 -27 -53 -1544 -3
c-1059 -1 -1548 1 -1556 8 -7 6 -16 30 -20 53 -5 23 -10 719 -12 1547 -2 1130
0 1512 9 1533 6 16 21 33 32 37 12 5 705 9 1541 9 l1520 0 40 -23z"/>
</g>
</svg>
