<svg width="28" height="22" viewBox="0 0 28 22" fill="none" xmlns="http://www.w3.org/2000/svg">
<path d="M23.7038 2.08687C21.8882 1.25364 19.9724 0.658948 18.0041 0.317622C17.9862 0.314619 17.9679 0.317212 17.9516 0.325047C17.9353 0.332881 17.9218 0.345571 17.9131 0.361372C17.6663 0.798872 17.3933 1.37112 17.2026 1.81912C15.0809 1.49714 12.9227 1.49714 10.8011 1.81912C10.5883 1.32006 10.3476 0.83337 10.0801 0.361372C10.0711 0.345744 10.0576 0.3332 10.0413 0.325391C10.0251 0.317582 10.0069 0.314873 9.98905 0.317622C8.0203 0.657122 6.10405 1.25212 4.2893 2.08687C4.27377 2.0928 4.26078 2.10393 4.25255 2.11837C0.623052 7.54162 -0.372699 12.8319 0.115551 18.0556C0.117301 18.0801 0.133051 18.1046 0.152301 18.1204C2.26582 19.686 4.62984 20.8813 7.14355 21.6554C7.1613 21.661 7.18037 21.6608 7.19799 21.6548C7.21562 21.6488 7.23088 21.6374 7.24155 21.6221C7.78055 20.8871 8.26005 20.1119 8.67305 19.2964C8.68166 19.2796 8.68461 19.2605 8.68145 19.2418C8.6783 19.2232 8.66921 19.2061 8.65555 19.1931C8.64651 19.1846 8.63578 19.178 8.62405 19.1739C7.87008 18.8841 7.13987 18.536 6.44005 18.1326C6.42051 18.1215 6.40597 18.1034 6.39945 18.0819C6.39294 18.0604 6.39494 18.0372 6.40505 18.0171C6.41101 18.0041 6.42001 17.9927 6.4313 17.9839C6.5783 17.8736 6.7253 17.7581 6.8653 17.6426C6.87767 17.6327 6.89251 17.6263 6.90823 17.6241C6.92395 17.622 6.93996 17.6241 6.95455 17.6304C11.5378 19.7234 16.4991 19.7234 21.0263 17.6304C21.0414 17.6238 21.058 17.6215 21.0744 17.6237C21.0907 17.6258 21.1061 17.6324 21.1191 17.6426C21.2591 17.7581 21.4061 17.8736 21.5531 17.9839C21.565 17.9926 21.5745 18.0041 21.5809 18.0174C21.5873 18.0307 21.5902 18.0454 21.5895 18.0601C21.5889 18.0749 21.5845 18.0892 21.5769 18.1019C21.5693 18.1145 21.5587 18.1251 21.5461 18.1326C20.8478 18.5397 20.1167 18.8874 19.3603 19.1721C19.3482 19.1765 19.3373 19.1835 19.3282 19.1925C19.3191 19.2016 19.3122 19.2126 19.3078 19.2246C19.3038 19.2363 19.3021 19.2487 19.303 19.261C19.3039 19.2734 19.3073 19.2854 19.3131 19.2964C19.7331 20.1101 20.2143 20.8871 20.7428 21.6221C20.7535 21.6374 20.7687 21.6488 20.7864 21.6548C20.804 21.6608 20.8231 21.661 20.8408 21.6554C23.3587 20.8837 25.7266 19.6882 27.8426 18.1204C27.8532 18.113 27.862 18.1034 27.8683 18.0922C27.8747 18.081 27.8784 18.0685 27.8793 18.0556C28.4638 12.0164 26.9011 6.76987 23.7388 2.12012C23.7356 2.11244 23.7309 2.10552 23.7248 2.09979C23.7188 2.09406 23.7116 2.08966 23.7038 2.08687ZM9.3573 14.8741C7.97655 14.8741 6.8408 13.6071 6.8408 12.0531C6.8408 10.4974 7.95555 9.23037 9.3573 9.23037C10.7696 9.23037 11.8948 10.5079 11.8738 12.0531C11.8738 13.6071 10.7591 14.8741 9.3573 14.8741ZM18.6603 14.8741C17.2813 14.8741 16.1438 13.6071 16.1438 12.0531C16.1438 10.4974 17.2586 9.23037 18.6603 9.23037C20.0726 9.23037 21.1996 10.5079 21.1768 12.0531C21.1768 13.6071 20.0726 14.8741 18.6603 14.8741Z" fill="black"/>
</svg>
