<svg width="28" height="24" viewBox="0 0 28 24" fill="none" xmlns="http://www.w3.org/2000/svg">
<path d="M8.7955 23.2493C19.362 23.2493 25.1423 14.494 25.1423 6.91476C25.1423 6.66976 25.1423 6.42126 25.1318 6.17626C26.2571 5.36161 27.2284 4.35303 28 3.19776C26.9488 3.66125 25.8348 3.96672 24.6943 4.10426C25.8957 3.38613 26.7955 2.2562 27.2265 0.92451C26.0977 1.59323 24.8623 2.06266 23.5742 2.31226C22.7083 1.39005 21.5625 0.779116 20.3141 0.574085C19.0658 0.369055 17.7848 0.581372 16.6693 1.17815C15.5539 1.77493 14.6664 2.72286 14.1443 3.87512C13.6222 5.02737 13.4946 6.31964 13.7812 7.55176C11.497 7.43722 9.26243 6.84383 7.22232 5.81006C5.18222 4.77629 3.3822 3.32524 1.939 1.55101C1.20635 2.81641 0.982754 4.31321 1.31363 5.73748C1.64451 7.16174 2.50505 8.40669 3.7205 9.21951C2.80969 9.18857 1.91891 8.94399 1.12 8.50551V8.58426C1.12157 9.90985 1.58079 11.1942 2.42003 12.2203C3.25927 13.2464 4.42706 13.9513 5.726 14.2158C5.23296 14.3516 4.72365 14.4193 4.21225 14.417C3.85172 14.4181 3.49192 14.3847 3.13775 14.3173C3.50488 15.4584 4.21973 16.4561 5.18218 17.1706C6.14464 17.8851 7.30649 18.2807 8.505 18.302C6.46897 19.9012 3.95395 20.7685 1.365 20.7643C0.908811 20.7662 0.45294 20.7399 0 20.6855C2.62765 22.3607 5.67927 23.2502 8.7955 23.2493Z" fill="black"/>
</svg>
